<?xml version="1.0" standalone="no"?>
<!DOCTYPE svg PUBLIC "-//W3C//DTD SVG 20010904//EN"
 "http://www.w3.org/TR/2001/REC-SVG-20010904/DTD/svg10.dtd">
<svg version="1.0" xmlns="http://www.w3.org/2000/svg"
 width="169.000000pt" height="77.000000pt" viewBox="0 0 169.000000 77.000000"
 preserveAspectRatio="xMidYMid meet">

<g transform="translate(0.000000,77.000000) scale(0.100000,-0.100000)"
fill="#000000" stroke="none">
<path d="M52 647 c9 -107 84 -209 196 -264 l57 -28 274 -3 c151 -2 295 -1 319
3 l44 6 -4 129 c-3 112 -6 132 -24 157 -37 49 -58 52 -478 52 l-388 1 4 -53z"/>
<path d="M982 583 l3 -88 170 -3 170 -3 -50 51 c-28 28 -68 61 -90 74 -47 28
-137 56 -177 56 l-29 0 3 -87z"/>
<path d="M981 312 c4 -114 7 -134 25 -159 38 -51 48 -53 347 -53 l277 0 -6 43
c-16 108 -88 208 -188 260 l-61 32 -199 3 -198 4 3 -130z"/>
<path d="M500 302 c0 -16 89 -101 142 -136 68 -46 152 -75 234 -83 l65 -6 -3
114 -3 114 -217 3 c-120 1 -218 -1 -218 -6z"/>
</g>
</svg>
